<svg width="1337" height="982" viewBox="0 0 1337 982" fill="none" xmlns="http://www.w3.org/2000/svg">
<path d="M1504.6 -18.6021L1118.62 173.987V561.174L1504.6 368.585V-18.6021Z" stroke="#236B72" stroke-opacity="0.6"/>
<path d="M1212.74 417.028L1019.38 512.719V705.098L1212.74 609.407V417.028Z" stroke="#236B72" stroke-opacity="0.6"/>
<path d="M922.221 367.89L1019.38 415.97V512.63L922.221 464.551V367.89Z" stroke="#236B72" stroke-opacity="0.6"/>
<path d="M1504.6 366.184L1118.62 558.773V945.96L1504.6 753.371V366.184Z" stroke="#236B72" stroke-opacity="0.6"/>
<path d="M1212.74 801.814L1019.38 897.505V1089.88L1212.74 994.193V801.814Z" stroke="#236B72" stroke-opacity="0.6"/>
<path d="M922.221 752.676L1019.38 800.755V897.416L922.221 849.336V752.676Z" stroke="#236B72" stroke-opacity="0.6"/>
<path d="M1504.6 76.8733L1118.62 269.463V656.65L1504.6 464.06V76.8733Z" stroke="#236B72" stroke-opacity="0.6"/>
<path d="M1212.74 512.503L1019.38 608.194V800.573L1212.74 704.882V512.503Z" stroke="#236B72" stroke-opacity="0.6"/>
<path d="M922.221 463.366L1019.38 511.445V608.106L922.221 560.026V463.366Z" stroke="#236B72" stroke-opacity="0.6"/>
<path d="M1504.59 -116L1118.62 76.5895V463.776L1504.59 271.187V-116Z" stroke="#236B72" stroke-opacity="0.6"/>
<path d="M1212.74 319.63L1019.38 415.321V607.7L1212.74 512.009V319.63Z" stroke="#236B72" stroke-opacity="0.6"/>
<path d="M922.221 270.492L1019.38 318.572V415.232L922.221 367.153V270.492Z" stroke="#236B72" stroke-opacity="0.6"/>
<path d="M583.375 374.3L197.401 566.89V954.077L583.375 761.487V374.3Z" stroke="#236B72" stroke-opacity="0.6"/>
<path d="M776.361 665.858L583.374 761.549V953.928L776.361 858.237V665.858Z" stroke="#236B72" stroke-opacity="0.6"/>
<path d="M291.519 809.93L98.1616 905.621V1098L291.519 1002.31V809.93Z" stroke="#236B72" stroke-opacity="0.6"/>
<path d="M776.361 858.251L873.522 906.331V1002.99L776.361 954.911V858.251Z" stroke="#236B72" stroke-opacity="0.6"/>
<path d="M1.00028 760.792L98.1616 808.872V905.532L1.00028 857.453V760.792Z" stroke="#236B72" stroke-opacity="0.6"/>
<path d="M583.375 84.9897L197.401 277.579V664.766L583.375 472.177V84.9897Z" stroke="#236B72" stroke-opacity="0.6"/>
<path d="M776.361 376.548L583.374 472.238V664.617L776.361 568.927V376.548Z" stroke="#236B72" stroke-opacity="0.6"/>
<path d="M291.519 520.62L98.1616 616.311V808.689L291.519 712.999V520.62Z" stroke="#236B72" stroke-opacity="0.6"/>
<path d="M776.361 568.94L873.522 617.019V713.68L776.361 665.6V568.94Z" stroke="#236B72" stroke-opacity="0.6"/>
<path d="M1.00028 471.482L98.1616 519.562V616.222L1.00028 568.143V471.482Z" stroke="#236B72" stroke-opacity="0.6"/>
<path d="M583.374 -107.884L197.4 84.706V471.893L583.374 279.303V-107.884Z" stroke="#236B72" stroke-opacity="0.6"/>
<path d="M776.36 183.674L583.373 279.365V471.744L776.36 376.053V183.674Z" stroke="#236B72" stroke-opacity="0.6"/>
<path d="M291.519 327.747L98.1616 423.437V615.816L291.519 520.126V327.747Z" stroke="#236B72" stroke-opacity="0.6"/>
<path d="M776.361 376.067L873.522 424.146V520.807L776.361 472.727V376.067Z" stroke="#236B72" stroke-opacity="0.6"/>
<path d="M1.00028 278.609L98.1616 326.688V423.349L1.00028 375.269V278.609Z" stroke="#236B72" stroke-opacity="0.6"/>
<path d="M583.375 -11.4468L197.401 181.143V568.33L583.375 375.74V-11.4468Z" stroke="#236B72" stroke-opacity="0.6"/>
<path d="M776.361 280.111L583.374 375.802V568.181L776.361 472.49V280.111Z" stroke="#236B72" stroke-opacity="0.6"/>
<path d="M291.519 424.184L98.1616 519.874V712.253L291.519 616.563V424.184Z" stroke="#236B72" stroke-opacity="0.6"/>
<path d="M776.361 472.504L873.522 520.583V617.244L776.361 569.164V472.504Z" stroke="#236B72" stroke-opacity="0.6"/>
<path d="M1.00028 375.046L98.1616 423.125V519.786L1.00028 471.706V375.046Z" stroke="#236B72" stroke-opacity="0.6"/>
</svg>
