<svg width="183" height="68" viewBox="0 0 183 68" fill="none" xmlns="http://www.w3.org/2000/svg">
<g clip-path="url(#clip0_139_476)">
<rect width="183" height="136" fill="#2D7F8A"/>
<path d="M123.817 -11L39.7681 30.9382V115.252L123.817 73.3136V-11Z" stroke="#236B72"/>
<path d="M165.842 52.4895L123.817 73.3271V115.219L165.842 94.3818V52.4895Z" stroke="#236B72"/>
<path d="M123.817 10L39.7681 51.9382V136.252L123.817 94.3136V10Z" stroke="#236B72"/>
<path d="M123.817 31L39.7681 72.9382V157.252L123.817 115.314V31Z" stroke="#236B72"/>
<path d="M123.817 -32L39.7681 9.9382V94.2518L123.817 52.3136V-32Z" stroke="#236B72"/>
<path d="M165.842 31.4895L123.817 52.3271V94.2194L165.842 73.3818V31.4895Z" stroke="#236B72"/>
<path d="M60.2632 62.8625L18.1577 83.7001V125.592L60.2632 104.755V62.8625Z" stroke="#236B72"/>
<path d="M-3.00009 52.1624L18.1577 62.6321V83.6809L-3.00009 73.2111V52.1624Z" stroke="#236B72"/>
<path d="M123.817 -53L39.7681 -11.0618V73.2518L123.817 31.3136V-53Z" stroke="#236B72"/>
<path d="M165.842 10.4895L123.817 31.3271V73.2194L165.842 52.3818V10.4895Z" stroke="#236B72"/>
<path d="M60.2632 41.8625L18.1577 62.7001V104.592L60.2632 83.7549V41.8625Z" stroke="#236B72"/>
<path d="M165.842 52.3848L187 62.8546V83.9033L165.842 73.4335V52.3848Z" stroke="#236B72"/>
<path d="M-3.00009 31.1624L18.1577 41.6321V62.6809L-3.00009 52.2111V31.1624Z" stroke="#236B72"/>
<path d="M123.817 -74L39.7681 -32.0618V52.2518L123.817 10.3136V-74Z" stroke="#236B72"/>
<path d="M165.842 -10.5105L123.817 10.3271V52.2194L165.842 31.3818V-10.5105Z" stroke="#236B72"/>
<path d="M60.2632 20.8625L18.1577 41.7001V83.5924L60.2632 62.7549V20.8625Z" stroke="#236B72"/>
<path d="M165.842 31.3848L187 41.8546V62.9033L165.842 52.4335V31.3848Z" stroke="#236B72"/>
<path d="M-3.00009 10.1624L18.1577 20.6321V41.6809L-3.00009 31.2111V10.1624Z" stroke="#236B72"/>
<path d="M123.817 -95L39.7681 -53.0618V31.2518L123.817 -10.6864V-95Z" stroke="#236B72"/>
<path d="M165.842 -31.5105L123.817 -10.6729V31.2194L165.842 10.3818V-31.5105Z" stroke="#236B72"/>
<path d="M60.2632 -0.137451L18.1577 20.7001V62.5924L60.2632 41.7549V-0.137451Z" stroke="#236B72"/>
<path d="M165.842 10.3848L187 20.8546V41.9033L165.842 31.4335V10.3848Z" stroke="#236B72"/>
<path d="M-3.00009 -10.8376L18.1577 -0.367862V20.6809L-3.00009 10.2111V-10.8376Z" stroke="#236B72"/>
</g>
<rect x="0.5" y="0.5" width="182" height="67" rx="9.5" stroke="#F7FDF8"/>
<defs>
<clipPath id="clip0_139_476">
<rect width="183" height="68" rx="10" fill="white"/>
</clipPath>
</defs>
</svg>
