<svg width="136" height="30" viewBox="0 0 136 30" fill="none" xmlns="http://www.w3.org/2000/svg">
<path d="M34.6912 4.25332H37.1006V0.908447L34.6912 4.25332Z" fill="#004B47"/>
<path d="M0 0.908447V4.25332H2.41416L0 0.908447Z" fill="#004B47"/>
<path d="M18.5716 17.7367L7.37005 0.908447H0L9.41572 13.943L15.1322 22.7871L18.5669 27.9225L22.0062 22.7966L18.5716 17.7367Z" fill="#2D7F8A"/>
<path d="M37.1006 0.908447H29.7353L18.5715 17.7367L22.0062 22.7966L27.6046 14.0706L37.1006 0.908447Z" fill="#236B72"/>
<path d="M33.7795 8.85474L27.6047 17.4153V24.5492H33.7795V8.85474Z" fill="url(#paint0_linear_91_4851)"/>
<path d="M33.7793 24.4973H27.6045H24.321V29.8217H37.1005V24.4973H33.7793Z" fill="url(#paint1_linear_91_4851)"/>
<path d="M9.42993 17.3067L9.41576 17.2878L3.32129 8.85474V24.5492H9.45828L9.42993 17.3067Z" fill="url(#paint2_linear_91_4851)"/>
<path d="M9.45823 24.4973H3.32125H0V29.8217H12.7795V24.4973H9.45823Z" fill="url(#paint3_linear_91_4851)"/>
<path d="M45.8483 9.35581H49.2649L52.8734 18.1595H53.0269L56.6354 9.35581H60.052V22.459H57.3648V13.9304H57.256L53.8651 22.395H52.0352L48.6443 13.8984H48.5355V22.459H45.8483V9.35581ZM66.7619 22.6509C65.751 22.6509 64.8809 22.4462 64.1515 22.0367C63.4264 21.623 62.8676 21.0386 62.4752 20.2837C62.0828 19.5244 61.8866 18.6266 61.8866 17.5901C61.8866 16.5792 62.0828 15.692 62.4752 14.9285C62.8676 14.165 63.42 13.57 64.1323 13.1434C64.8489 12.7169 65.6892 12.5036 66.6531 12.5036C67.3015 12.5036 67.905 12.6081 68.4638 12.8171C69.0268 13.0219 69.5173 13.3311 69.9353 13.7449C70.3576 14.1586 70.686 14.679 70.9206 15.306C71.1552 15.9287 71.2725 16.6581 71.2725 17.4941V18.2427H62.9743V16.5536H68.7069C68.7069 16.1612 68.6216 15.8136 68.451 15.5107C68.2804 15.2079 68.0436 14.9712 67.7408 14.8005C67.4422 14.6257 67.0946 14.5382 66.6979 14.5382C66.2842 14.5382 65.9174 14.6342 65.5974 14.8261C65.2818 15.0138 65.0344 15.2676 64.8553 15.5875C64.6761 15.9031 64.5844 16.255 64.5802 16.6432V18.2491C64.5802 18.7353 64.6697 19.1555 64.8489 19.5095C65.0323 19.8635 65.2903 20.1365 65.623 20.3284C65.9557 20.5204 66.3503 20.6164 66.8067 20.6164C67.1095 20.6164 67.3868 20.5737 67.6384 20.4884C67.8901 20.4031 68.1055 20.2751 68.2846 20.1045C68.4638 19.9339 68.6003 19.7249 68.6941 19.4775L71.2149 19.6439C71.087 20.2495 70.8246 20.7784 70.428 21.2306C70.0356 21.6784 69.528 22.0282 68.9052 22.2798C68.2868 22.5272 67.5723 22.6509 66.7619 22.6509ZM76.6724 22.6189C75.926 22.6189 75.2499 22.427 74.6443 22.0431C74.0429 21.655 73.5651 21.0855 73.2111 20.3348C72.8613 19.5799 72.6865 18.6543 72.6865 17.5581C72.6865 16.432 72.8677 15.4958 73.2303 14.7494C73.5929 13.9987 74.0748 13.4378 74.6763 13.0667C75.2819 12.6913 75.9452 12.5036 76.666 12.5036C77.2163 12.5036 77.6748 12.5975 78.0416 12.7852C78.4127 12.9686 78.7113 13.1989 78.9373 13.4761C79.1677 13.7491 79.3426 14.0178 79.462 14.2823H79.5452V9.35581H82.2643V22.459H79.5771V20.8851H79.462C79.334 21.1581 79.1527 21.4289 78.9182 21.6976C78.6878 21.9621 78.3871 22.1817 78.016 22.3566C77.6492 22.5315 77.2013 22.6189 76.6724 22.6189ZM77.5362 20.45C77.9755 20.45 78.3466 20.3306 78.6494 20.0917C78.9565 19.8486 79.1911 19.5095 79.3532 19.0744C79.5196 18.6394 79.6027 18.1296 79.6027 17.5453C79.6027 16.9609 79.5217 16.4534 79.3596 16.0226C79.1975 15.5918 78.9629 15.2591 78.6558 15.0245C78.3487 14.7899 77.9755 14.6726 77.5362 14.6726C77.0883 14.6726 76.7108 14.7941 76.4037 15.0373C76.0966 15.2804 75.8642 15.6174 75.7063 16.0482C75.5485 16.479 75.4696 16.978 75.4696 17.5453C75.4696 18.1169 75.5485 18.6223 75.7063 19.0616C75.8684 19.4967 76.1009 19.8379 76.4037 20.0853C76.7108 20.3284 77.0883 20.45 77.5362 20.45ZM84.5052 22.459V12.6316H87.2308V22.459H84.5052ZM85.8744 11.3648C85.4692 11.3648 85.1216 11.2304 84.8315 10.9617C84.5458 10.6887 84.4029 10.3624 84.4029 9.98282C84.4029 9.60747 84.5458 9.28544 84.8315 9.01672C85.1216 8.74374 85.4692 8.60724 85.8744 8.60724C86.2796 8.60724 86.6251 8.74374 86.9109 9.01672C87.2009 9.28544 87.346 9.60747 87.346 9.98282C87.346 10.3624 87.2009 10.6887 86.9109 10.9617C86.6251 11.2304 86.2796 11.3648 85.8744 11.3648ZM92.4484 9.35581L95.6154 19.3112H95.737L98.9104 9.35581H101.981L97.4644 22.459H93.8943L89.3709 9.35581H92.4484ZM105.219 22.6445C104.592 22.6445 104.033 22.5358 103.543 22.3182C103.052 22.0964 102.664 21.7701 102.378 21.3393C102.097 20.9043 101.956 20.3626 101.956 19.7142C101.956 19.1683 102.056 18.7097 102.257 18.3387C102.457 17.9676 102.73 17.669 103.076 17.4429C103.421 17.2169 103.813 17.0462 104.253 16.9311C104.696 16.8159 105.161 16.7349 105.648 16.688C106.219 16.6282 106.68 16.5728 107.03 16.5216C107.379 16.4662 107.633 16.3851 107.791 16.2785C107.949 16.1719 108.028 16.014 108.028 15.805V15.7666C108.028 15.3614 107.9 15.0479 107.644 14.8261C107.392 14.6043 107.034 14.4934 106.569 14.4934C106.078 14.4934 105.688 14.6022 105.398 14.8197C105.108 15.033 104.916 15.3017 104.822 15.6259L102.301 15.4211C102.429 14.824 102.681 14.3079 103.056 13.8728C103.432 13.4335 103.916 13.0965 104.509 12.8619C105.106 12.6231 105.797 12.5036 106.582 12.5036C107.128 12.5036 107.65 12.5676 108.149 12.6956C108.652 12.8235 109.098 13.0219 109.486 13.2906C109.879 13.5593 110.188 13.9048 110.414 14.3271C110.64 14.7451 110.753 15.2463 110.753 15.8306V22.459H108.168V21.0962H108.092C107.934 21.4033 107.723 21.6742 107.458 21.9088C107.194 22.1391 106.876 22.3204 106.505 22.4526C106.134 22.5805 105.705 22.6445 105.219 22.6445ZM105.999 20.7635C106.4 20.7635 106.754 20.6846 107.061 20.5268C107.369 20.3647 107.61 20.1472 107.784 19.8742C107.959 19.6012 108.047 19.292 108.047 18.9465V17.9036C107.961 17.959 107.844 18.0102 107.695 18.0571C107.55 18.0998 107.386 18.1403 107.202 18.1787C107.019 18.2128 106.835 18.2448 106.652 18.2747C106.469 18.3003 106.302 18.3237 106.153 18.345C105.833 18.392 105.554 18.4666 105.315 18.569C105.076 18.6713 104.89 18.81 104.758 18.9849C104.626 19.1555 104.56 19.3687 104.56 19.6247C104.56 19.9957 104.694 20.2794 104.963 20.4756C105.236 20.6675 105.581 20.7635 105.999 20.7635ZM119.17 18.2747V12.6316H121.895V22.459H119.279V20.6739H119.176C118.954 21.2498 118.585 21.7125 118.069 22.0623C117.557 22.4121 116.933 22.5869 116.195 22.5869C115.538 22.5869 114.96 22.4377 114.461 22.1391C113.962 21.8405 113.571 21.4161 113.29 20.8659C113.013 20.3156 112.872 19.6566 112.868 18.8889V12.6316H115.593V18.4026C115.598 18.9827 115.753 19.4412 116.06 19.7782C116.367 20.1152 116.779 20.2837 117.295 20.2837C117.624 20.2837 117.931 20.209 118.216 20.0597C118.502 19.9062 118.733 19.6801 118.907 19.3815C119.087 19.083 119.174 18.714 119.17 18.2747ZM126.801 9.35581V22.459H124.075V9.35581H126.801ZM134.212 12.6316V14.679H128.293V12.6316H134.212ZM129.637 10.2771H132.363V19.4391C132.363 19.6908 132.401 19.887 132.478 20.0277C132.554 20.1642 132.661 20.2602 132.798 20.3156C132.938 20.3711 133.1 20.3988 133.284 20.3988C133.412 20.3988 133.54 20.3882 133.668 20.3668C133.796 20.3412 133.894 20.322 133.962 20.3092L134.391 22.3374C134.254 22.3801 134.062 22.4291 133.815 22.4846C133.567 22.5443 133.267 22.5805 132.913 22.5933C132.256 22.6189 131.68 22.5315 131.185 22.331C130.695 22.1306 130.313 21.8192 130.04 21.3969C129.767 20.9746 129.633 20.4415 129.637 19.7974V10.2771Z" fill="url(#paint4_linear_91_4851)"/>
<defs>
<linearGradient id="paint0_linear_91_4851" x1="30.7087" y1="24.5303" x2="33.0168" y2="23.366" gradientUnits="userSpaceOnUse">
<stop stop-color="#155962"/>
<stop offset="1" stop-color="#236B72"/>
</linearGradient>
<linearGradient id="paint1_linear_91_4851" x1="30.713" y1="29.8207" x2="30.713" y2="24.4959" gradientUnits="userSpaceOnUse">
<stop offset="0.278032" stop-color="#155861"/>
<stop offset="1" stop-color="#226A71"/>
</linearGradient>
<linearGradient id="paint2_linear_91_4851" x1="6.40622" y1="24.5303" x2="8.70594" y2="23.3773" gradientUnits="userSpaceOnUse">
<stop stop-color="#155962"/>
<stop offset="1" stop-color="#236B72"/>
</linearGradient>
<linearGradient id="paint3_linear_91_4851" x1="6.39194" y1="29.8207" x2="6.39194" y2="24.4959" gradientUnits="userSpaceOnUse">
<stop offset="0.278032" stop-color="#155861"/>
<stop offset="1" stop-color="#226A71"/>
</linearGradient>
<linearGradient id="paint4_linear_91_4851" x1="90.2095" y1="4.45898" x2="90.2095" y2="26.459" gradientUnits="userSpaceOnUse">
<stop stop-color="#236B72"/>
<stop offset="1" stop-color="#2F6C75"/>
</linearGradient>
</defs>
</svg>
