<svg width="312" height="296" viewBox="0 0 312 296" fill="none" xmlns="http://www.w3.org/2000/svg">
<path d="M24.6284 295.357C11.0276 295.357 0 284.329 0 270.728V33.8181C0 20.2786 11.0276 9.18969 24.6284 9.18969H151.63L153.713 4.90117C155.245 1.83794 158.308 0 161.616 0C162.719 0 163.883 0.245058 164.986 0.673911L185.387 9.18969H261.539C275.139 9.18969 286.167 20.2173 286.167 33.8181V51.2785L304.301 58.8753C304.424 58.9366 304.546 58.9978 304.669 59.0591L305.098 59.1816C307.61 59.8555 309.693 61.5709 310.795 63.899C311.898 66.227 311.959 68.9839 310.857 71.312L286.167 125.592V270.79C286.167 284.39 275.139 295.418 261.539 295.418H24.6284V295.357Z" fill="#474747"/>
<path d="M276.303 32.7154V269.626C276.303 278.325 269.197 285.493 260.436 285.493H173.747L168.907 281.45L164.802 285.493H81.4208L77.6836 281.634L72.4762 285.493H23.5257C14.8262 285.493 7.6582 278.325 7.6582 269.626V32.7154C7.6582 24.0159 14.8262 16.8479 23.5257 16.8479H260.436C269.136 16.8479 276.303 24.0159 276.303 32.7154Z" fill="#5447E8"/>
<path d="M73.334 204.93L160.881 30.2646L301.851 66.5333L206.033 276.671L73.334 204.93Z" fill="black"/>
<path d="M58.9976 214.61L160.513 7.6582L299.829 65.8596L204.256 275.813L58.9976 214.61Z" fill="#87A2FF"/>
<path d="M75.5396 200.887L165.353 15.6226L292.477 66.901L206.401 256.025L75.5396 200.887Z" fill="#FDE4F3"/>
<path d="M195.985 32.5316L257.863 59.488L258.598 56.241C259.333 52.8714 258.291 49.3793 255.841 46.9287L252.288 43.4367L253.574 35.0434C253.023 31.4288 250.572 28.3656 247.08 27.2015L226.618 20.1561C224.045 19.2371 221.165 19.4822 218.776 20.83L213.201 26.834L207.319 26.3438C204.379 26.0988 201.499 27.1403 199.477 29.2233L195.985 32.5316Z" fill="#FCCC41"/>
<path d="M213.14 26.834L252.288 43.4367" stroke="black" stroke-width="0.974904" stroke-miterlimit="10" stroke-linecap="round" stroke-linejoin="round"/>
<path d="M221.641 70.0543L210.905 65.248L189.677 112.665L200.413 117.471L221.641 70.0543Z" fill="#F8679B"/>
<path d="M226.936 107.355L231.742 96.6187L184.325 75.3909L179.519 86.1268L226.936 107.355Z" fill="#F8679B"/>
<path d="M132.393 111.195C132.271 111.012 132.209 110.705 132.332 110.46C132.516 110.093 132.945 109.909 133.312 110.093L232.254 153.162C232.622 153.345 232.806 153.774 232.622 154.142C232.438 154.509 232.009 154.693 231.642 154.509L132.7 111.44C132.577 111.379 132.454 111.318 132.393 111.195Z" fill="black"/>
<path d="M128.288 120.691C128.166 120.507 128.104 120.201 128.227 119.956C128.411 119.588 128.84 119.405 129.207 119.588L228.15 162.657C228.517 162.841 228.701 163.27 228.517 163.638C228.333 164.005 227.904 164.189 227.537 164.005L128.595 120.936C128.472 120.875 128.349 120.814 128.288 120.691Z" fill="black"/>
<path d="M124.122 130.187C124 130.004 123.938 129.697 124.061 129.452C124.245 129.085 124.674 128.901 125.041 129.085L224.045 172.154C224.412 172.337 224.596 172.766 224.412 173.134C224.229 173.501 223.8 173.685 223.432 173.501L124.49 130.494C124.306 130.432 124.245 130.31 124.122 130.187Z" fill="black"/>
<path d="M120.018 139.683C119.895 139.5 119.834 139.193 119.956 138.948C120.14 138.581 120.569 138.397 120.937 138.581L219.879 181.65C220.247 181.833 220.43 182.262 220.247 182.63C220.063 182.997 219.634 183.181 219.266 182.997L120.324 139.928C120.201 139.928 120.079 139.806 120.018 139.683Z" fill="black"/>
<path d="M115.852 149.179C115.729 148.995 115.668 148.689 115.79 148.444C115.974 148.077 116.403 147.893 116.771 148.076L215.774 191.146C216.142 191.329 216.326 191.758 216.142 192.126C215.958 192.493 215.529 192.677 215.162 192.493L116.219 149.486C116.035 149.424 115.974 149.302 115.852 149.179Z" fill="black"/>
<path d="M111.747 158.675C111.624 158.492 111.563 158.185 111.685 157.94C111.869 157.573 112.298 157.389 112.666 157.573L211.608 200.642C211.976 200.825 212.159 201.254 211.976 201.622C211.792 201.989 211.363 202.173 210.995 201.989L112.053 158.92C111.93 158.92 111.808 158.798 111.747 158.675Z" fill="black"/>
<path d="M107.581 168.171C107.458 167.988 107.397 167.681 107.519 167.436C107.703 167.069 108.132 166.885 108.5 167.069L207.503 210.138C207.871 210.321 208.055 210.75 207.871 211.118C207.687 211.486 207.258 211.669 206.891 211.486L107.948 168.478C107.764 168.417 107.703 168.294 107.581 168.171Z" fill="black"/>
<path d="M103.476 177.729C103.353 177.545 103.292 177.238 103.414 176.993C103.598 176.626 104.027 176.442 104.395 176.626L203.337 219.695C203.705 219.879 203.888 220.307 203.705 220.675C203.521 221.043 203.092 221.226 202.724 221.043L103.782 177.974C103.659 177.912 103.537 177.79 103.476 177.729Z" fill="black"/>
<path d="M29.4072 122.468C29.4072 122.468 45.2748 47.2351 63.9605 36.6363C82.6462 25.9763 99.3101 46.6837 99.3101 46.6837" stroke="black" stroke-width="2.92275" stroke-miterlimit="10"/>
<path d="M93.3672 45.2746L98.7585 38.7805L103.598 43.9267L97.4107 50.2983L93.3672 45.2746Z" fill="black"/>
<path d="M113.34 54.7092C111.502 59.2427 106.355 61.4483 101.822 59.6716C97.2882 57.8337 95.0827 52.6874 96.8594 48.1539C98.6973 43.6203 103.844 41.4147 108.377 43.1914C112.911 45.0294 115.116 50.1756 113.34 54.7092Z" fill="black"/>
<path d="M82.401 128.533C82.401 128.533 83.6876 51.7074 67.8201 37.1877C51.9525 22.668 31.1226 39.1482 31.1226 39.1482" stroke="black" stroke-width="2.92275" stroke-miterlimit="10"/>
<path d="M37.1876 39.0868L33.328 31.5513L27.5078 35.4722L32.1027 43.069L37.1876 39.0868Z" fill="black"/>
<path d="M33.1218 43.9557C33.944 39.1187 30.6895 34.531 25.8525 33.7087C21.0155 32.8864 16.4278 36.141 15.6056 40.978C14.7833 45.8149 18.0378 50.4027 22.8748 51.2249C27.7118 52.0472 32.2995 48.7926 33.1218 43.9557Z" fill="black"/>
<path d="M43.069 179.383C39.2093 177.851 35.901 175.339 33.1441 171.847C19.911 154.877 26.7113 120.201 27.0177 118.731L35.5947 120.446C33.818 129.33 31.0611 155 40.0058 166.456C42.9465 170.193 46.9287 172.154 52.0749 172.399C57.7112 172.644 62.3061 170.99 66.1045 167.191C78.5412 154.938 77.806 126.205 77.7448 125.899L86.5056 125.654C86.5668 127.002 87.3633 158.553 72.2309 173.44C66.6559 178.893 59.733 181.527 51.646 181.16C48.5828 181.037 45.7034 180.424 43.069 179.383Z" fill="#BCD6FF"/>
<path d="M155.49 256.944C143.176 247.203 127.798 243.65 112.972 240.28C110.95 239.79 108.867 239.361 106.846 238.871C103.17 237.952 99.2488 236.972 95.3279 235.685C93.6738 235.134 91.9583 234.582 90.3042 233.909L90.2429 233.847C91.8358 230.11 93.5512 226.373 95.5117 222.82C96.737 220.492 98.0848 218.164 99.4939 215.897C100.168 214.733 100.903 213.569 101.699 212.466L94.4089 207.626C93.49 209.035 92.6323 210.383 91.7746 211.792C90.4267 214.059 89.0789 216.326 87.8536 218.654C85.8319 222.452 83.9939 226.312 82.3398 230.233C82.2785 230.171 82.156 230.171 82.0947 230.11C81.7884 229.926 81.4821 229.804 81.1758 229.62C75.3556 226.373 70.2094 222.207 66.5335 216.632C59.7332 206.339 58.8755 192.494 58.5691 180.792C58.5691 179.934 58.5079 179.077 58.5079 178.219L49.6245 178.403C49.6245 179.261 49.6858 180.118 49.6858 181.037C50.0534 193.841 50.9723 209.158 59.1205 221.472C63.2865 227.782 68.9229 232.561 75.1106 236.298C76.2746 237.033 77.4999 237.646 78.7252 238.32C78.8477 238.381 78.9703 238.442 79.0315 238.503C77.3161 243.466 75.8458 248.551 74.6817 253.697C72.7213 262.642 71.2509 273.976 72.66 285.555H81.4821C80.0118 274.833 81.3596 264.051 83.2588 255.596C84.3003 251.001 85.5868 246.468 87.0572 242.057L87.241 242.118C87.6698 242.302 88.1599 242.424 88.5888 242.608C94.0413 244.63 99.6164 246.1 104.701 247.325C106.784 247.816 108.867 248.306 110.95 248.796C124.857 251.982 139.193 255.29 150.037 263.806C157.021 269.319 162.229 277.039 164.924 285.493H174.053C171.112 274.343 164.557 264.112 155.49 256.944Z" fill="#BCD6FF"/>
<path d="M111.951 221.84C123.684 216.582 128.935 202.808 123.677 191.074C118.42 179.341 104.646 174.091 92.9118 179.348C81.1781 184.605 75.928 198.38 81.1854 210.113C86.4429 221.847 100.217 227.097 111.951 221.84Z" fill="black"/>
<path d="M108.357 214.986C116.306 211.719 120.103 202.626 116.836 194.677C113.569 186.727 104.477 182.931 96.5269 186.197C88.5773 189.464 84.781 198.557 88.0476 206.506C91.3143 214.456 100.407 218.252 108.357 214.986Z" stroke="#FDE4F3" stroke-width="1.46134" stroke-miterlimit="10"/>
<path d="M95.3279 235.624L88.6501 242.608C88.2212 242.485 87.7311 242.301 87.3022 242.118C88.4663 238.135 89.569 235.501 90.3042 233.908C91.9584 234.521 93.6125 235.072 95.3279 235.624Z" fill="black"/>
<path d="M81.972 230.049L78.725 238.258C77.4997 237.646 76.2744 236.972 75.1104 236.236L81.053 229.559C81.3593 229.742 81.6657 229.865 81.972 230.049Z" fill="black"/>
<path d="M267.972 198.252L173.869 273.792L156.899 267.053L155.735 250.879L244.201 172.521C260.497 181.833 267.972 198.252 267.972 198.252Z" fill="#FCCC41"/>
<path d="M158.859 256.821C158.798 256.76 158.737 256.76 158.675 256.699C158.492 256.454 158.492 256.147 158.737 255.902L249.286 178.28C249.531 178.096 249.837 178.096 250.082 178.341C250.266 178.586 250.266 178.893 250.021 179.138L159.472 256.699C159.288 256.821 159.043 256.882 158.859 256.821Z" fill="black"/>
<path d="M164.741 262.029C164.679 261.968 164.618 261.968 164.557 261.906C164.373 261.661 164.373 261.355 164.618 261.11L253.023 187.163C253.268 186.98 253.574 186.98 253.819 187.225C254.003 187.47 254.003 187.776 253.758 188.021L165.292 261.968C165.108 262.09 164.924 262.151 164.741 262.029Z" fill="black"/>
<path d="M172.215 270.422C172.153 270.361 172.092 270.361 172.031 270.299C171.847 270.054 171.847 269.748 172.092 269.503L260.803 193.535C261.048 193.351 261.355 193.351 261.6 193.596C261.784 193.841 261.784 194.147 261.538 194.393L172.766 270.361C172.644 270.483 172.399 270.544 172.215 270.422Z" fill="black"/>
<path d="M267.972 198.252C267.298 198.559 259.701 198.191 252.349 189.308C245.732 181.343 243.649 177.116 244.017 173.747C244.078 172.95 244.201 172.521 244.201 172.521C267.359 175.217 267.972 198.252 267.972 198.252Z" fill="#FFA2FF"/>
<path d="M179.812 265.704L173.869 273.791L162.352 271.402L156.164 268.155L154.755 261.906L155.735 250.878L165.721 248.918L163.638 257.005L173.686 255.044L170.745 264.54L179.812 265.704Z" fill="#FFA2FF"/>
<path d="M162.351 271.402L154.081 269.687L154.754 261.906C155.367 262.029 155.919 262.213 156.531 262.396C158.982 263.315 161.126 265.215 162.045 267.665C162.229 268.155 162.351 268.707 162.413 269.258C162.535 269.993 162.535 270.728 162.351 271.402Z" fill="black"/>
<path d="M262.703 191.023C261.722 191.942 258.475 190.104 255.473 186.919C252.472 183.733 250.817 180.424 251.798 179.506C252.778 178.587 256.025 180.424 259.027 183.61C262.029 186.796 263.683 190.104 262.703 191.023Z" fill="black"/>
<path d="M37.7393 228.272V265.582" stroke="black" stroke-width="1.11881" stroke-miterlimit="10" stroke-linecap="round" stroke-linejoin="round"/>
<path d="M48.5834 235.746L25.9155 259.027" stroke="black" stroke-width="1.11881" stroke-miterlimit="10" stroke-linecap="round" stroke-linejoin="round"/>
<path d="M56.4246 246.958H19.0532" stroke="black" stroke-width="1.11881" stroke-miterlimit="10" stroke-linecap="round" stroke-linejoin="round"/>
<path d="M49.4411 258.353L25.9155 235.93" stroke="black" stroke-width="1.11881" stroke-miterlimit="10" stroke-linecap="round" stroke-linejoin="round"/>
<path d="M141.215 21.3203V58.6305" stroke="black" stroke-width="1.11881" stroke-miterlimit="10" stroke-linecap="round" stroke-linejoin="round"/>
<path d="M152.059 28.7944L129.391 52.075" stroke="black" stroke-width="1.11881" stroke-miterlimit="10" stroke-linecap="round" stroke-linejoin="round"/>
<path d="M159.901 40.0059H122.529" stroke="black" stroke-width="1.11881" stroke-miterlimit="10" stroke-linecap="round" stroke-linejoin="round"/>
<path d="M152.917 51.4011L129.391 28.9783" stroke="black" stroke-width="1.11881" stroke-miterlimit="10" stroke-linecap="round" stroke-linejoin="round"/>
<path d="M245.426 235.991V273.301" stroke="black" stroke-width="1.11881" stroke-miterlimit="10" stroke-linecap="round" stroke-linejoin="round"/>
<path d="M256.27 243.466L233.602 266.746" stroke="black" stroke-width="1.11881" stroke-miterlimit="10" stroke-linecap="round" stroke-linejoin="round"/>
<path d="M264.112 254.677H226.802" stroke="black" stroke-width="1.11881" stroke-miterlimit="10" stroke-linecap="round" stroke-linejoin="round"/>
<path d="M257.128 266.011L233.602 243.588" stroke="black" stroke-width="1.11881" stroke-miterlimit="10" stroke-linecap="round" stroke-linejoin="round"/>
<path d="M63.5316 182.875C62.5514 185.815 60.5296 188.45 57.5277 189.981L49.8696 193.902L36.9428 200.519C30.9388 203.582 23.5258 201.254 20.4626 195.373C18.931 192.432 18.7472 189.124 19.6662 186.122C20.6464 183.181 22.7294 180.547 25.6701 179.015L37.0653 173.195L46.3163 168.478C52.3202 165.414 59.7332 167.742 62.7964 173.624C64.3281 176.565 64.5118 179.873 63.5316 182.875Z" fill="#FCCC41"/>
<path d="M49.1344 194.147L36.9428 200.519C30.9388 203.582 23.5258 201.254 20.4626 195.373C18.931 192.432 18.7472 189.124 19.6662 186.122C20.6464 183.181 22.7294 180.547 25.6701 179.015L35.9013 173.685C37.8617 175.278 40.3736 178.035 42.8242 181.772C45.5811 186.061 48.1542 190.962 49.1344 194.147Z" fill="#FDE4F3"/>
<path d="M49.4407 194.086L48.5217 194.576C45.3972 186.857 41.6601 179.138 35.166 174.175L36.1462 173.685C42.579 178.77 46.3162 186.428 49.4407 194.086Z" fill="black"/>
</svg>
