<svg width="304" height="296" viewBox="0 0 304 296" fill="none" xmlns="http://www.w3.org/2000/svg">
<path d="M50.1127 295.42C36.9312 295.42 26.1951 284.684 26.1951 271.503V112.49L1.74083 46.5228C0.130427 42.1688 0.309361 37.3376 2.27763 33.1028L5.85631 25.4683C6.03525 24.514 6.39312 23.6193 6.87027 22.7843C8.12281 20.5774 10.3297 19.0863 12.8347 18.6688L125.742 0.119289C126.219 0.0596447 126.696 0 127.114 0C130.573 0 133.734 2.08756 134.987 5.36802L139.938 17.8338H279.804C292.986 17.8338 303.662 28.5698 303.662 41.6916V271.443C303.662 278.898 300.262 285.817 294.238 290.41C294.179 290.47 294.119 290.47 294.119 290.529C293.344 291.066 292.628 291.603 291.912 292.02C288.274 294.227 284.039 295.36 279.804 295.36H50.1127V295.42Z" fill="#474747"/>
<path d="M295.61 41.7511V271.502C295.61 276.453 293.224 280.926 289.526 283.73C289.049 284.087 288.572 284.445 288.035 284.743C285.769 286.115 283.085 286.891 280.222 286.891H50.4704C42.0008 286.891 35.082 279.972 35.082 271.502V41.7511C35.082 33.2816 42.0008 26.3628 50.4704 26.3628H280.222C288.691 26.3628 295.61 33.2816 295.61 41.7511Z" fill="#5447E8"/>
<path d="M199.761 217.465L121.686 21.4722L24.883 37.4569L14.8627 27.1384L10.3894 36.7412C9.37543 38.8884 9.25615 41.3338 10.0912 43.6003L97.4706 279.137C98.7231 282.477 102.361 284.267 105.761 283.193L209.722 250.448C211.511 249.852 213.002 248.539 213.778 246.81L218.37 236.551L199.761 217.465Z" fill="black"/>
<path d="M14.5645 27.1384L105.463 272.099L218.37 236.551L127.472 8.5293L14.5645 27.1384Z" fill="#BCD6FF"/>
<path d="M21.3638 34.6535L60.6696 140.761L120.135 254.683L192.842 227.902L163.079 108.553L126.756 17.2373L21.3638 34.6535Z" fill="#FDE4F3"/>
<path d="M46.8916 27.5558L57.9259 33.4606L99.7964 25.4682L105.761 15.6865L46.8916 27.5558Z" fill="#BCD6FF"/>
<path d="M15.5188 47.5368C15.2802 48.1332 15.2802 48.849 15.5188 49.5051L24.5251 73.4226C25.0619 74.7944 26.553 75.2716 27.567 74.3769C28.2827 73.7208 28.581 72.5279 28.1634 71.5736L19.1571 47.5964C18.4414 45.7475 16.2345 45.7474 15.5188 47.5368Z" stroke="#BCD6FF" stroke-width="1.2797" stroke-miterlimit="10" stroke-linecap="round" stroke-linejoin="round"/>
<path d="M28.0442 83.0851C27.8056 83.6815 27.8056 84.3972 28.0442 85.0533L37.0505 108.971C37.5873 110.343 39.0784 110.82 40.0924 109.925C40.8081 109.269 41.1063 108.076 40.6888 107.122L31.6825 83.1447C31.0264 81.2957 28.7599 81.2361 28.0442 83.0851Z" stroke="#BCD6FF" stroke-width="1.2797" stroke-miterlimit="10" stroke-linecap="round" stroke-linejoin="round"/>
<path d="M123.834 105.69C123.834 105.69 124.311 105.511 125.146 105.273C130.812 103.543 151.33 98.8312 162.781 107.42L211.929 230.944L106.596 265.777L60.3716 140.225C60.3716 140.225 69.7358 130.562 79.1 124.121L123.834 105.69Z" fill="white"/>
<path d="M106.477 49.7436C108.624 53.3223 110.354 57.1992 111.845 60.8375C113.634 65.1916 115.245 69.5456 117.153 73.7804C118.346 76.5241 118.525 79.5659 117.571 82.3692C116.497 85.5304 114.171 88.0951 111.069 89.5862L106.238 91.972L106.298 92.0913L108.863 96.9822L109.817 98.7715L112.143 102.648L106.298 115.353L84.0504 112.907L75.4019 94.8946C67.8867 97.34 59.8347 93.1053 60.1329 85.8286C60.3118 81.057 64.2484 80.0431 67.4692 79.9238C64.9641 77.8362 62.8169 75.2119 61.2065 72.1104C54.9438 59.8832 60.1925 45.0317 72.8969 39.0076C79.5771 35.8464 87.4502 35.3692 94.3093 38.2918C99.737 40.6776 103.554 44.9124 106.477 49.7436Z" fill="#FFA2FF"/>
<path d="M81.0084 63.104C80.2927 63.939 79.9945 64.8933 80.3523 65.5494C80.5313 65.788 80.7698 66.0266 81.0681 66.1459C81.3663 66.2652 81.6645 66.2652 82.082 66.2055C82.6188 66.0862 83.096 65.788 83.5731 65.4898C84.4678 64.8933 85.3028 64.2969 86.1379 63.5812C86.4957 63.2829 86.8536 62.9251 87.0922 62.5672C87.5693 61.8515 87.45 61.1357 87.0325 60.6586C86.7343 60.3007 86.1379 60.0025 85.4221 60.1814C84.0503 60.4796 81.8434 62.1497 81.0084 63.104Z" fill="black"/>
<path d="M102.779 52.5469C103.853 52.4276 104.867 52.6662 105.224 53.3223C105.344 53.5608 105.403 53.9187 105.344 54.2169C105.284 54.5152 105.105 54.8134 104.867 55.052C104.509 55.4098 103.972 55.6484 103.435 55.887C102.421 56.3045 101.407 56.6624 100.393 56.9606C99.9161 57.0799 99.4389 57.1992 99.0214 57.1992C98.1267 57.1992 97.5899 56.722 97.411 56.1256C97.2321 55.6484 97.2917 55.052 97.8285 54.5152C98.8425 53.6205 101.467 52.7258 102.779 52.5469Z" fill="black"/>
<path d="M100.512 76.4645C99.3195 76.6434 98.067 76.4048 97.053 75.868C96.8145 75.7487 96.7548 75.5102 96.8741 75.2716C96.9934 75.033 97.2916 74.9734 97.5302 75.0926C98.6634 75.6891 100.095 75.8084 101.347 75.3909C102.6 74.9734 103.614 74.019 104.091 72.8261C104.21 72.5876 104.449 72.4683 104.688 72.5876C104.926 72.7069 105.045 72.9454 104.926 73.184C104.33 74.5558 103.137 75.6891 101.646 76.2259C101.228 76.2855 100.87 76.4048 100.512 76.4645Z" fill="black"/>
<path d="M108.863 96.9226C95.2639 101.813 89.2397 98.1155 89.2397 98.1155C97.7093 96.2069 104.211 93.1053 106.298 92.0317L108.863 96.9226Z" fill="black"/>
<path d="M73.9704 90.9581C73.7318 91.0178 73.4932 90.9581 73.4336 90.7196C72.5986 88.2145 70.9285 85.948 68.7216 84.3376C67.4095 83.3832 66.0973 82.7868 64.7851 82.6079C63.294 82.3693 61.8029 82.6675 60.7293 83.3833C60.5503 83.5025 60.3118 83.4429 60.1925 83.3236C60.0732 83.1447 60.1328 82.9657 60.2521 82.8464C61.5046 82.0114 63.1747 81.6536 64.8447 81.8921C66.2762 82.1307 67.7077 82.7272 69.0795 83.7411C71.4057 85.4112 73.1354 87.797 74.03 90.481C74.2686 90.7195 74.1493 90.8985 73.9704 90.9581Z" fill="black"/>
<path d="M89.9551 69.7246C90.6112 71.0368 90.0744 72.5876 88.7026 73.184C87.3904 73.8401 85.7203 73.3033 85.0642 71.9911C84.4081 70.6789 84.9449 69.1282 86.3168 68.5317C87.6886 67.8756 89.299 68.4124 89.9551 69.7246Z" fill="black"/>
<path d="M106.894 61.3745C107.55 62.6867 107.013 64.2375 105.642 64.8339C104.329 65.49 102.659 64.9532 102.003 63.641C101.347 62.3289 101.884 60.7781 103.256 60.1817C104.628 59.5852 106.238 60.122 106.894 61.3745Z" fill="black"/>
<path d="M60.6696 83.264C60.7292 82.6676 61.3257 82.2501 61.8625 81.9518C65.2026 80.2221 69.4373 80.2818 72.6581 82.1904C72.5389 80.2221 71.7038 77.9557 70.7495 76.226C72.8371 75.6295 74.2686 73.4227 75.4614 71.5737C79.9348 64.3567 82.6784 55.4696 80.412 47.2386C79.3383 43.3617 77.2508 39.9024 75.0439 36.5623C68.9602 39.3656 63.4132 42.646 58.2838 46.9404C56.1366 48.7298 53.9894 50.698 52.6772 53.2031C50.2318 57.8554 51.0668 63.5813 53.0351 68.4722C55.0033 73.3034 58.5224 78.4328 60.6696 83.264Z" fill="black"/>
<path d="M68.1846 41.2144C74.0894 34.9517 82.7379 31.4326 91.3267 31.7905C93.295 31.8502 95.2036 32.1484 97.0526 32.8045C100.691 34.1763 103.554 37.1585 106.119 40.0811C106.119 41.0951 105.105 41.8705 104.21 42.3476C99.8559 44.8527 95.0247 46.5824 90.0145 47.4174C86.078 48.0735 82.0221 48.1332 78.1452 47.2385C74.2683 46.3438 70.7493 44.2562 68.1846 41.2144Z" fill="black"/>
<path d="M130.871 178.516C130.633 178.218 130.334 177.92 130.036 177.681L80.6505 125.254L79.4576 124.001L79.3979 123.942L79.04 123.584L79.5768 122.749L81.1873 120.184L82.5591 117.917L82.1416 109.508L82.4398 109.567L103.077 114.16L104.091 114.398H105.522L105.88 112.967L109.757 98.7119L118.227 105.332L122.879 105.571L123.833 105.631L123.893 105.989L130.573 175.534L130.871 178.516Z" fill="#BCD6FF"/>
<path d="M82.7979 118.752L101.049 140.046L105.582 114.458L123.654 127.341L118.286 105.392" stroke="black" stroke-width="2.162" stroke-miterlimit="10" stroke-linecap="round" stroke-linejoin="round"/>
<path d="M64.606 134.976L80.8293 136.944L72.4791 154.718C72.4791 154.718 117.928 163.844 130.871 178.516C143.814 193.129 162.244 244.304 162.244 244.304" stroke="black" stroke-width="2.162" stroke-miterlimit="10" stroke-linecap="round" stroke-linejoin="round"/>
<path d="M144.709 102.291L132.661 121.615L148.228 126.208C148.228 126.208 123.416 155.851 133.317 181.081" stroke="black" stroke-width="2.162" stroke-miterlimit="10" stroke-linecap="round" stroke-linejoin="round"/>
<path d="M105.582 114.458L132.064 179.113" stroke="black" stroke-width="2.162" stroke-miterlimit="10" stroke-linecap="round" stroke-linejoin="round"/>
<path d="M149.6 165.931L171.549 157.462C171.549 157.462 185.625 182.334 174.471 187.046C163.318 191.758 149.6 165.931 149.6 165.931Z" stroke="black" stroke-width="2.162" stroke-miterlimit="10" stroke-linecap="round" stroke-linejoin="round"/>
<path d="M122.939 105.631C123.118 105.69 123.297 105.75 123.476 105.869C123.655 105.929 123.774 105.989 123.953 106.048C129.082 108.195 133.496 111.357 137.015 114.697C139.461 116.963 141.548 119.289 143.278 121.437C144.351 122.808 145.425 124.24 146.379 125.671C146.737 126.208 147.095 126.745 147.453 127.282C151.747 133.902 155.087 141.119 158.129 148.098C158.249 148.277 158.308 148.456 158.428 148.694C158.487 148.813 158.487 148.873 158.547 148.933V148.992C158.726 149.291 159.024 149.41 159.322 149.35C159.322 149.35 159.382 149.35 159.382 149.291C159.382 149.231 159.442 149.291 159.442 149.231C159.74 149.112 159.859 148.754 159.74 148.456C159.68 148.336 159.62 148.217 159.561 148.098C159.561 148.038 159.501 147.978 159.501 147.919C155.445 138.674 150.972 128.892 144.351 120.542C142.562 118.275 140.415 115.83 137.79 113.504C134.391 110.343 130.216 107.36 125.384 105.154L122.939 105.631Z" fill="black"/>
<path d="M193.737 202.195C183.418 204.521 171.549 199.81 163.437 190.147C155.684 180.902 152.403 168.794 154.55 157.76C155.326 153.883 156.698 150.722 158.606 148.277C158.845 147.978 159.203 147.978 159.501 148.157C159.799 148.396 159.799 148.754 159.62 149.052C157.831 151.318 156.519 154.301 155.803 157.999C153.715 168.615 156.936 180.365 164.392 189.312C172.146 198.617 183.538 203.15 193.379 200.943C193.737 200.883 194.095 201.062 194.154 201.42C194.274 201.778 194.095 202.076 193.737 202.195Z" fill="#87A2FF"/>
<path d="M175.366 210.844C175.247 210.904 175.068 210.904 174.949 210.844C174.591 210.725 174.472 210.367 174.591 210.009C180.138 194.561 179.005 176.548 171.609 161.876C168.03 154.718 163.557 150.364 158.487 148.992C158.129 148.873 157.95 148.515 158.07 148.217C158.189 147.859 158.547 147.68 158.845 147.799C164.332 149.35 168.984 153.883 172.742 161.339C180.317 176.31 181.45 194.68 175.784 210.486C175.724 210.665 175.605 210.844 175.366 210.844Z" fill="#87A2FF"/>
<path d="M176.094 214.579C178.094 212.966 178.408 210.037 176.795 208.037C175.182 206.037 172.253 205.723 170.253 207.336C168.253 208.949 167.939 211.878 169.552 213.878C171.165 215.878 174.094 216.192 176.094 214.579Z" fill="black"/>
<path d="M194.289 205.497C196.709 204.633 197.971 201.971 197.107 199.552C196.243 197.132 193.582 195.87 191.162 196.734C188.742 197.597 187.48 200.259 188.344 202.679C189.207 205.099 191.869 206.36 194.289 205.497Z" fill="black"/>
<path d="M104.39 195.217C104.33 195.277 104.27 195.336 104.211 195.396C104.151 195.396 104.091 195.456 104.032 195.456C103.972 195.456 103.912 195.515 103.853 195.515C103.614 195.515 103.376 195.396 103.256 195.217C102.779 194.442 102.302 193.666 101.825 192.891C95.085 181.916 88.4644 170.107 84.17 157.581C84.1103 157.522 84.1103 157.402 84.1103 157.343C82.0228 151.199 80.5913 145.056 79.8756 139.151C79.7563 138.376 79.6966 137.66 79.637 136.885C79.2195 132.471 79.1598 128.236 79.5177 124.061C79.5177 124.001 79.5177 124.001 79.5177 124.001C79.5773 123.584 79.5773 123.226 79.637 122.808L81.2474 120.244C81.0685 121.317 80.9492 122.331 80.8299 123.405C80.7702 124.061 80.7106 124.657 80.7106 125.313C80.0545 135.214 81.6053 145.951 85.3629 156.925C85.4822 157.283 85.6015 157.641 85.7207 157.999C89.9555 170.166 96.4568 181.618 103.018 192.294C103.495 193.07 103.972 193.845 104.449 194.561C104.509 194.74 104.509 195.038 104.39 195.217Z" fill="black"/>
<path d="M119.334 208.827C122.44 202.793 120.067 195.385 114.034 192.279C108.001 189.173 100.592 191.546 97.486 197.579C94.3801 203.612 96.7532 211.021 102.787 214.127C108.82 217.233 116.228 214.86 119.334 208.827Z" fill="black"/>
<path d="M117.034 200.525C115.543 195.754 110.473 193.129 105.702 194.68C105.225 194.859 104.748 195.038 104.33 195.217C104.151 195.277 103.972 195.396 103.853 195.455C100.334 197.543 98.5445 201.837 99.7971 205.893C101.288 210.665 106.358 213.289 111.13 211.798C115.901 210.307 118.525 205.237 117.034 200.525ZM110.772 210.605C106.716 211.917 102.362 209.651 101.05 205.535C99.7971 201.48 102.004 197.126 106.119 195.873C110.175 194.561 114.529 196.827 115.782 200.883C117.094 204.999 114.828 209.353 110.772 210.605Z" fill="#FDE4F3"/>
<path d="M287.558 43.123H167.374C165.644 43.123 164.212 44.5545 164.212 46.2842V86.3058C164.212 88.0355 165.644 89.4669 167.374 89.4669H173.935L159.441 105.869L185.207 89.4669H287.558C289.287 89.4669 290.719 88.0355 290.719 86.3058V46.2842C290.659 44.5545 289.287 43.123 287.558 43.123Z" fill="white"/>
<path d="M218.549 54.9329H281.534" stroke="black" stroke-width="2.162" stroke-miterlimit="10" stroke-linecap="round" stroke-linejoin="round"/>
<path d="M218.549 60.2412H281.534" stroke="black" stroke-width="2.162" stroke-miterlimit="10" stroke-linecap="round" stroke-linejoin="round"/>
<path d="M218.549 65.5496H281.534" stroke="black" stroke-width="2.162" stroke-miterlimit="10" stroke-linecap="round" stroke-linejoin="round"/>
<path d="M218.549 70.8579H281.534" stroke="black" stroke-width="2.162" stroke-miterlimit="10" stroke-linecap="round" stroke-linejoin="round"/>
<path d="M218.549 76.1663H281.534" stroke="black" stroke-width="2.162" stroke-miterlimit="10" stroke-linecap="round" stroke-linejoin="round"/>
<path d="M218.549 81.4746H281.534" stroke="black" stroke-width="2.162" stroke-miterlimit="10" stroke-linecap="round" stroke-linejoin="round"/>
<path d="M195.316 51.9544L188.518 51.8372L188 81.8354L194.799 81.9526L195.316 51.9544Z" fill="#F8679B"/>
<path d="M206.579 70.5544L206.696 63.7556L176.698 63.2387L176.58 70.0375L206.579 70.5544Z" fill="#F8679B"/>
<path d="M245.449 151.02C245.449 151.02 224.335 128.952 209.304 141.298C177.752 167.184 245.032 215.794 245.032 215.794C245.032 215.794 318.514 164.5 280.162 140.105C264.118 129.966 245.449 151.02 245.449 151.02Z" fill="#F8679B"/>
<path d="M205.368 180.664L211.929 170.166L217.654 181.439L227.794 157.82C227.794 157.82 231.79 198.915 232.029 198.08C232.267 197.245 237.934 169.629 237.934 169.629L240.021 180.365H259.048L265.609 155.136L268.591 193.01L270.261 177.145H292.628" stroke="#FDE4F3" stroke-width="1.5638" stroke-miterlimit="10" stroke-linecap="round" stroke-linejoin="round"/>
<path d="M228.45 96.5647V132.769" stroke="black" stroke-width="1.8192" stroke-miterlimit="10" stroke-linecap="round" stroke-linejoin="round"/>
<path d="M238.948 103.782L216.939 126.387" stroke="black" stroke-width="1.8192" stroke-miterlimit="10" stroke-linecap="round" stroke-linejoin="round"/>
<path d="M246.523 114.637H210.318" stroke="black" stroke-width="1.8192" stroke-miterlimit="10" stroke-linecap="round" stroke-linejoin="round"/>
<path d="M239.783 125.671L216.939 103.961" stroke="black" stroke-width="1.8192" stroke-miterlimit="10" stroke-linecap="round" stroke-linejoin="round"/>
<path d="M270.917 235V271.204" stroke="black" stroke-width="1.8192" stroke-miterlimit="10" stroke-linecap="round" stroke-linejoin="round"/>
<path d="M281.415 242.277L259.406 264.882" stroke="black" stroke-width="1.8192" stroke-miterlimit="10" stroke-linecap="round" stroke-linejoin="round"/>
<path d="M288.989 253.132H252.785" stroke="black" stroke-width="1.8192" stroke-miterlimit="10" stroke-linecap="round" stroke-linejoin="round"/>
<path d="M282.25 264.166L259.406 242.396" stroke="black" stroke-width="1.8192" stroke-miterlimit="10" stroke-linecap="round" stroke-linejoin="round"/>
<path d="M62.459 235V271.204" stroke="black" stroke-width="1.8192" stroke-miterlimit="10" stroke-linecap="round" stroke-linejoin="round"/>
<path d="M73.0163 242.277L50.9478 264.882" stroke="black" stroke-width="1.8192" stroke-miterlimit="10" stroke-linecap="round" stroke-linejoin="round"/>
<path d="M80.591 253.132H44.3867" stroke="black" stroke-width="1.8192" stroke-miterlimit="10" stroke-linecap="round" stroke-linejoin="round"/>
<path d="M73.7917 264.166L50.9478 242.396" stroke="black" stroke-width="1.8192" stroke-miterlimit="10" stroke-linecap="round" stroke-linejoin="round"/>
</svg>
