<svg width="269" height="296" viewBox="0 0 269 296" fill="none" xmlns="http://www.w3.org/2000/svg">
<path d="M23.7389 295.42C11.0103 295.42 0.653809 285.064 0.653809 272.335V50.5674C0.653809 37.8388 11.0103 27.4823 23.7389 27.4823H106.533C110.525 17.4151 120.824 10.4143 131.874 10.4143C132.742 10.4143 133.552 10.4722 134.42 10.5301C139.801 4.86002 147.265 1.09929 154.96 0.173572C156.059 0.0578574 157.158 0 158.257 0C164.217 0 169.192 1.96715 172.664 5.67003C175.788 8.9679 177.003 13.0179 177.466 16.6051C179.086 17.2994 180.706 18.2251 182.21 19.498C184.583 21.5808 186.318 24.3001 187.302 27.4244H245.506C258.235 27.4244 268.592 37.7809 268.592 50.5095V272.335C268.592 279.567 265.294 286.221 259.508 290.676C259.45 290.734 259.392 290.734 259.392 290.791C258.64 291.312 257.946 291.775 257.251 292.18C253.722 294.263 249.672 295.42 245.506 295.42H23.7389Z" fill="#474747"/>
<path d="M260.376 51.6089V273.434C260.376 278.236 258.062 282.518 254.532 285.237C254.069 285.584 253.606 285.931 253.086 286.221C250.887 287.551 248.284 288.304 245.564 288.304H230.232L143.272 262.673L43.0055 288.304H23.739C15.5811 288.304 8.86963 281.592 8.86963 273.434V51.6089C8.86963 43.451 15.5811 36.7395 23.739 36.7395H245.564C253.722 36.7395 260.376 43.3931 260.376 51.6089Z" fill="#5447E8"/>
<path d="M252.449 220.842C247.474 210.022 240.068 200.36 232.894 191.103C226.24 182.424 219.297 173.514 214.437 163.621C205.701 145.974 203.56 125.204 208.362 106.111C221.149 107.846 234.282 102.813 240.994 92.6876C243.366 89.1583 244.465 85.6869 244.292 82.389C244.06 78.339 241.688 74.8097 238.39 73.5368C235.613 72.4954 232.315 72.9583 228.554 74.8675C216.636 80.8847 210.85 93.6133 208.073 103.218C207.899 103.796 207.726 104.375 207.61 104.953C204.196 104.433 200.783 103.333 197.601 101.771C184.236 95.1755 174.573 80.4219 172.375 63.2382C171.333 54.9646 171.796 46.1703 173.879 36.7974H172.838C170.755 46.2281 170.292 55.0225 171.391 63.4118C173.648 80.8847 183.483 95.9855 197.138 102.697C200.436 104.317 203.849 105.416 207.378 105.995C202.576 125.261 204.775 146.264 213.569 164.084C218.487 174.035 225.43 183.061 232.141 191.74C239.258 200.997 246.664 210.601 251.582 221.305C260.607 240.976 261.128 264.813 253.144 286.279C253.664 285.989 254.127 285.642 254.59 285.295C262.054 263.888 261.359 240.34 252.449 220.842ZM208.998 103.507C212.817 90.1998 219.934 80.364 228.959 75.7933C232.489 73.9997 235.497 73.5947 237.985 74.5204C240.878 75.6197 243.076 78.8597 243.25 82.4469C243.424 85.5133 242.382 88.7533 240.126 92.1091C233.646 101.887 220.975 106.689 208.593 105.069C208.709 104.548 208.825 104.028 208.998 103.507Z" fill="#BCD6FF"/>
<path d="M60.0734 288.304H59.032C59.2056 281.303 58.1063 274.071 55.6184 267.012C50.122 251.217 38.7241 236.521 20.8461 222.173C19.8625 221.42 18.9368 220.668 17.9532 219.858C14.8868 217.428 11.7046 214.94 8.86963 212.221V210.775C11.8782 213.725 15.2918 216.387 18.5897 218.99C19.5733 219.743 20.5568 220.495 21.4825 221.305C39.5919 235.827 51.0477 250.638 56.602 266.607C59.0899 273.839 60.1892 281.187 60.0734 288.304Z" fill="#BCD6FF"/>
<path d="M84.8364 85.3976C81.4228 96.2169 74.5957 110.392 61.4042 116.756C56.197 119.302 50.4113 120.343 44.7991 121.327C41.2119 121.963 37.4512 122.658 33.9219 123.699C24.0861 126.65 15.4075 133.072 8.86963 141.519V139.552C15.4075 131.626 23.9126 125.609 33.6326 122.716C37.2198 121.616 40.9805 120.922 44.5677 120.286C50.122 119.302 55.792 118.261 60.8834 115.773C73.7857 109.582 80.4393 95.6384 83.795 85.0504C88.7129 69.4289 89.7543 52.766 86.9771 36.6816H88.0186C90.8536 52.8817 89.8122 69.6604 84.8364 85.3976Z" fill="#BCD6FF"/>
<path d="M175.21 66.8832C176.309 72.669 176.656 78.744 176.83 84.414C177.061 91.0676 177.061 97.7791 177.466 104.433C177.698 108.714 176.425 112.88 173.821 116.236C170.928 119.996 166.589 122.426 161.903 122.947L154.439 123.931V124.104L155.423 131.915L155.77 134.808L156.927 141.114L159.299 176.002L115.385 141.924L112.782 113.516C101.789 113.343 93.3995 103.854 97.276 94.192C99.8217 87.8276 105.434 88.2326 109.657 89.6791C107.401 85.6291 105.897 81.1162 105.318 76.2562C103.062 56.7582 117.063 39.1695 136.561 36.9131C146.744 35.756 157.274 38.7645 164.738 45.881C170.813 51.4932 173.706 59.0146 175.21 66.8832Z" fill="#FFA2FF"/>
<path d="M135.578 73.1897C134.305 73.9997 133.379 75.099 133.553 76.1404C133.611 76.5454 133.842 76.9504 134.247 77.2397C134.536 77.529 134.999 77.7026 135.52 77.7604C136.272 77.8761 137.024 77.7026 137.776 77.4711C139.223 77.0661 140.669 76.6033 142 76.0825C142.636 75.8511 143.273 75.5618 143.736 75.2147C144.661 74.4625 144.893 73.479 144.603 72.6111C144.372 71.9747 143.793 71.2804 142.752 71.1647C140.727 71.049 137.082 72.264 135.578 73.1897Z" fill="black"/>
<path d="M171.449 68.3295C172.953 68.6766 174.11 69.4866 174.284 70.5281C174.342 70.9331 174.226 71.3959 173.995 71.8009C173.763 72.1481 173.416 72.4952 172.953 72.7267C172.317 73.0738 171.449 73.1317 170.697 73.1895C169.192 73.3052 167.688 73.3052 166.242 73.1895C165.547 73.1317 164.853 73.0738 164.332 72.9002C163.175 72.4952 162.712 71.6274 162.712 70.7017C162.712 70.0074 163.06 69.1974 164.043 68.7345C165.895 67.8666 169.713 67.8666 171.449 68.3295Z" fill="black"/>
<path d="M157.505 75.3882C158.836 79.8432 159.82 84.4718 160.456 89.1004C160.63 90.3154 160.745 91.5883 160.167 92.6297C159.357 94.134 157.447 94.5968 155.77 94.8283" stroke="black" stroke-width="2.3046" stroke-miterlimit="10" stroke-linecap="round" stroke-linejoin="round"/>
<path d="M154.439 100.267C152.819 99.9197 151.315 99.1097 150.215 97.8368C149.984 97.5475 149.984 97.1425 150.273 96.9111C150.562 96.6797 150.967 96.6797 151.199 96.9689C152.414 98.2997 154.207 99.1097 156.001 99.1097C157.795 99.1097 159.588 98.2997 160.803 96.9689C161.035 96.6797 161.44 96.6797 161.729 96.9111C162.018 97.1425 162.018 97.5475 161.787 97.8368C160.34 99.4568 158.2 100.44 156.059 100.44C155.48 100.44 154.96 100.383 154.439 100.267Z" fill="black"/>
<path d="M155.423 131.915C135.346 132.204 129.329 124.451 129.329 124.451C141.248 125.782 151.199 124.625 154.439 124.162L155.423 131.915Z" fill="black"/>
<path d="M112.955 107.615H112.897C112.608 107.615 112.377 107.383 112.377 107.094C112.492 103.275 111.393 99.4569 109.31 96.2747C108.095 94.3654 106.649 92.9768 105.087 92.109C103.235 91.0676 101.21 90.7783 99.4165 91.299C99.1272 91.3568 98.8379 91.2411 98.7801 90.9518C98.7222 90.6625 98.8379 90.3733 99.1272 90.3154C101.152 89.7368 103.467 90.0261 105.549 91.1833C107.285 92.1668 108.847 93.6711 110.178 95.6961C112.377 99.0519 113.534 103.102 113.418 107.094C113.418 107.383 113.187 107.615 112.955 107.615Z" fill="black"/>
<path d="M143.967 86.2655C144.198 88.2905 142.752 90.1419 140.669 90.3734C138.644 90.6048 136.792 89.1584 136.561 87.0755C136.329 85.0505 137.776 83.199 139.859 82.9676C141.884 82.7362 143.735 84.2405 143.967 86.2655Z" fill="black"/>
<path d="M171.622 83.141C171.854 85.166 170.407 87.0175 168.325 87.2489C166.3 87.4803 164.448 86.0339 164.217 83.951C163.985 81.926 165.432 80.0746 167.515 79.8431C169.54 79.6117 171.391 81.0581 171.622 83.141Z" fill="black"/>
<path d="M97.2759 94.4234C98.3752 92.2827 100.227 89.7948 102.599 89.2162C104.971 88.6377 107.517 89.1584 109.484 90.547C111.22 91.8198 112.377 93.6713 113.534 95.5227C115.559 95.5227 116.311 93.3241 116.542 91.2991C116.774 89.2741 116.542 87.0755 117.7 85.3977C118.741 83.8355 120.65 83.1991 122.097 82.0419C124.932 79.9012 126.031 76.1983 126.552 72.7269C128.056 62.0811 125.047 51.3775 121.518 41.2524C112.897 43.3932 104.219 45.9967 96.2923 50.0468C95.3088 50.5096 94.383 51.0303 93.6309 51.8403C92.8209 52.8239 92.4159 54.0389 92.1845 55.3118C91.548 58.4361 91.3745 61.6183 91.4323 64.8583C91.4902 74.4047 94.0938 85.3398 97.2759 94.4234Z" fill="black"/>
<path d="M94.846 56.1218C93.5731 52.0139 94.2674 47.3275 96.6974 43.7403C99.1274 40.1532 103.177 37.781 107.459 37.376C108.732 37.2603 110.12 37.3181 111.22 36.6239C112.782 35.6981 113.303 33.6731 113.939 31.9374C116.832 23.8952 125.8 18.5723 134.247 19.7873C135.288 19.9609 136.33 20.1345 137.313 19.8452C138.355 19.4981 139.049 18.6302 139.801 17.8202C143.909 13.1916 149.753 10.1252 155.943 9.37301C159.762 8.91015 164.043 9.48872 166.705 12.3237C169.482 15.3323 169.656 19.8452 169.598 23.8952C172.201 24.4159 174.921 25.0524 176.888 26.7881C179.202 28.7552 180.128 31.9953 180.186 35.0038C180.301 42.0625 175.731 48.8896 169.193 51.5511C162.655 54.2125 154.613 52.4768 149.811 47.3275C147.438 54.2125 141.016 59.5354 133.842 60.5768C126.668 61.6183 118.973 58.3782 114.691 52.4768C110.41 54.6175 105.955 56.5847 101.673 58.7254C100.863 58.089 99.7639 58.2047 98.7224 58.1468C97.681 58.2047 95.1353 57.1054 94.846 56.1218Z" fill="black"/>
<path d="M229.885 288.304L144.661 271.062L43.3525 288.304C43.584 269.847 45.1461 222.346 55.5605 194.285C57.1226 190.119 59.0898 186.243 61.4619 182.598C61.6933 182.193 61.9826 181.846 62.2141 181.441C62.4455 181.094 62.6769 180.747 62.9083 180.399C63.1976 179.937 63.5448 179.474 63.8919 179.011C64.2391 178.548 64.5862 178.085 64.9334 177.622C65.2805 177.159 65.6276 176.697 65.9748 176.292C66.7269 175.424 67.4212 174.498 68.1734 173.688C68.5205 173.225 68.9255 172.82 69.3305 172.415C69.7355 172.01 70.0827 171.605 70.4877 171.142C70.8927 170.737 71.2398 170.332 71.6448 169.927C72.4548 169.117 73.2648 168.365 74.0748 167.555C75.2898 166.398 76.5048 165.299 77.7777 164.257C78.1827 163.91 78.5877 163.563 79.0506 163.216C79.0506 163.216 79.1084 163.158 79.1663 163.1C79.9184 162.464 80.7284 161.827 81.4806 161.191L81.5384 161.133C82.2906 160.554 83.0427 159.976 83.7949 159.397C83.9106 159.339 84.0263 159.224 84.0842 159.166C84.4892 158.876 84.952 158.529 85.357 158.24C85.762 157.951 86.2249 157.604 86.6299 157.314C87.0349 157.025 87.4977 156.736 87.9028 156.446C88.3078 156.157 88.7706 155.868 89.1756 155.636C90.8535 154.479 92.4735 153.438 94.0935 152.512C94.4985 152.281 94.9035 152.049 95.3085 151.76C97.3335 150.603 99.2428 149.504 101.036 148.578C101.384 148.404 101.789 148.173 102.078 147.999C102.425 147.826 102.772 147.594 103.119 147.479C103.466 147.305 103.814 147.131 104.161 146.958C104.566 146.726 104.971 146.553 105.376 146.379C107.748 145.222 109.773 144.296 111.393 143.602C111.624 143.544 111.798 143.429 111.971 143.371C112.087 143.313 112.261 143.255 112.376 143.197C112.608 143.081 112.839 143.024 113.071 142.908C113.36 142.792 113.649 142.676 113.881 142.561C113.996 142.503 114.112 142.503 114.17 142.445C114.344 142.387 114.459 142.329 114.575 142.271C114.806 142.214 114.922 142.098 115.096 142.098C115.211 142.04 115.269 142.04 115.327 141.982C115.327 141.982 115.327 141.982 115.385 141.982L154.554 170.795L156.927 141.172C156.927 141.172 156.927 141.172 156.985 141.172C156.985 141.172 157.042 141.172 157.1 141.172C157.158 141.172 157.274 141.23 157.39 141.288C157.679 141.346 158.026 141.461 158.489 141.635C158.778 141.751 159.125 141.809 159.472 141.924C159.704 141.982 159.935 142.098 160.167 142.156C160.514 142.271 160.861 142.387 161.208 142.503C161.902 142.734 162.655 142.966 163.465 143.255C164.332 143.544 165.258 143.891 166.242 144.239C168.787 145.164 171.68 146.264 174.805 147.594C175.21 147.768 175.557 147.941 176.02 148.115C176.135 148.115 176.193 148.173 176.309 148.231C176.309 148.231 176.367 148.231 176.367 148.289C177.061 148.578 177.697 148.925 178.392 149.272C178.855 149.504 179.375 149.735 179.838 149.966C181.4 150.719 182.962 151.586 184.525 152.454C185.335 152.917 186.087 153.38 186.897 153.843C187.649 154.306 188.401 154.769 189.153 155.231L189.211 155.289C190.773 156.273 192.278 157.372 193.782 158.471C193.898 158.587 194.013 158.645 194.187 158.761C194.823 159.224 195.46 159.744 196.038 160.207L196.096 160.265C196.675 160.728 197.253 161.191 197.774 161.654C198.931 162.695 200.088 163.737 201.188 164.836C201.882 165.53 202.576 166.282 203.27 167.034L203.328 167.092C204.023 167.844 204.659 168.654 205.295 169.464C205.527 169.754 205.758 170.043 205.99 170.39C206.221 170.679 206.395 170.969 206.568 171.258C206.742 171.489 206.915 171.779 207.089 172.01C207.378 172.415 207.668 172.878 207.899 173.283C208.188 173.746 208.42 174.151 208.709 174.614C208.94 175.077 209.23 175.539 209.461 175.944C209.635 176.234 209.75 176.581 209.924 176.87C210.445 177.969 210.965 179.069 211.37 180.226C223.347 212.279 228.381 267.996 229.885 288.304Z" fill="#BCD6FF"/>
<path d="M229.885 288.304H43.3525C43.584 269.847 45.1461 222.346 55.5605 194.285C57.1226 190.119 59.0898 186.243 61.4619 182.598C61.6933 182.193 61.9826 181.846 62.2141 181.441C62.4455 181.094 62.6769 180.747 62.9083 180.399C63.1976 179.937 63.5448 179.474 63.8919 179.011C64.2391 178.548 64.5862 178.085 64.9334 177.622C65.2805 177.159 65.6276 176.697 65.9748 176.292C66.7269 175.424 67.4212 174.498 68.1734 173.688C68.5205 173.225 68.9255 172.82 69.3305 172.415C69.7355 172.01 70.0827 171.605 70.4877 171.142C70.8927 170.737 71.2398 170.332 71.6448 169.927C72.4548 169.117 73.2648 168.365 74.0748 167.555C75.2898 166.398 76.5048 165.299 77.7777 164.257C78.1827 163.91 78.5877 163.563 79.0506 163.216C79.0506 163.216 79.1084 163.158 79.1663 163.1C79.9184 162.464 80.7284 161.827 81.4806 161.191L81.5384 161.133C82.2906 160.554 83.0427 159.976 83.7949 159.397C83.9106 159.339 84.0263 159.224 84.0842 159.166C84.4892 158.876 84.952 158.529 85.357 158.24C85.762 157.951 86.2249 157.604 86.6299 157.314C87.0349 157.025 87.4977 156.736 87.9028 156.446C88.3078 156.157 88.7706 155.868 89.1756 155.636C90.8535 154.479 92.4735 153.438 94.0935 152.512C94.4985 152.281 94.9035 152.049 95.3085 151.76C97.3335 150.603 99.2428 149.504 101.036 148.578C101.384 148.404 101.789 148.173 102.078 147.999C102.425 147.826 102.772 147.594 103.119 147.479C103.466 147.305 103.814 147.131 104.161 146.958C104.566 146.726 104.971 146.553 105.376 146.379C107.748 145.222 109.773 144.296 111.393 143.602C111.624 143.544 111.798 143.429 111.971 143.371C112.087 143.313 112.261 143.255 112.376 143.197C112.608 143.081 112.839 143.024 113.071 142.908C113.36 142.792 113.649 142.676 113.881 142.561C113.996 142.503 114.112 142.503 114.17 142.445C114.344 142.387 114.459 142.329 114.575 142.271C119.377 145.801 152.182 170.737 163.638 199.666C163.812 200.013 163.927 200.418 164.043 200.765L163.812 198.451L156.927 141.404V141.172C156.927 141.172 156.927 141.172 156.985 141.172C156.985 141.172 157.042 141.172 157.1 141.172C157.679 141.288 159.935 141.924 163.233 143.024C164.101 143.313 165.027 143.66 166.068 144.007C168.961 145.049 172.375 146.437 176.077 148.115C176.193 148.115 176.251 148.173 176.367 148.231C176.367 148.231 176.425 148.231 176.425 148.289C177.119 148.578 177.755 148.925 178.45 149.272C178.912 149.504 179.433 149.735 179.896 149.966C181.458 150.719 183.02 151.586 184.582 152.454C185.393 152.917 186.145 153.38 186.955 153.843C187.707 154.306 188.459 154.769 189.211 155.231L189.269 155.289C190.831 156.331 192.335 157.372 193.84 158.471C193.955 158.587 194.071 158.645 194.245 158.761C194.881 159.224 195.518 159.744 196.096 160.207L196.154 160.265C196.733 160.728 197.311 161.191 197.832 161.654C198.989 162.695 200.146 163.737 201.245 164.836C201.94 165.53 202.634 166.282 203.328 167.034L203.386 167.092C204.08 167.844 204.717 168.654 205.353 169.464C205.585 169.754 205.816 170.043 206.048 170.39C206.279 170.679 206.453 170.969 206.626 171.258C206.8 171.489 206.973 171.779 207.147 172.01C207.436 172.415 207.725 172.878 207.957 173.283C208.246 173.746 208.478 174.151 208.767 174.614C208.998 175.077 209.288 175.539 209.519 175.944C209.693 176.234 209.808 176.581 209.982 176.87C210.503 177.969 211.023 179.069 211.428 180.226C223.347 212.279 228.381 267.996 229.885 288.304Z" fill="#FDE4F3"/>
<path d="M173.647 288.304H172.317C171.68 262.789 170.06 231.546 165.837 216.618C158.199 189.425 109.368 181.441 108.847 181.383C108.616 181.325 108.384 181.152 108.326 180.92C108.269 180.689 108.326 180.4 108.5 180.226L120.708 167.035L108.037 163.274L106.764 162.869L88.7127 157.488C88.3655 157.372 88.1341 156.967 88.2498 156.678C88.3655 156.331 88.7127 156.099 89.0598 156.215L106.938 161.538L108.211 161.943L122.096 166.109C122.328 166.167 122.501 166.34 122.559 166.572C122.617 166.803 122.559 167.034 122.386 167.208L110.294 180.284C117.294 181.557 150.736 188.5 163.349 208.055C163.812 208.75 164.217 209.444 164.622 210.138C165.663 212.105 166.531 214.13 167.167 216.329C169.945 226.223 171.622 243.059 172.606 260.706V260.764C172.664 261.4 172.664 262.036 172.722 262.673C173.127 271.236 173.416 280.03 173.647 288.304Z" fill="black"/>
<path d="M193.03 167.092C193.03 167.382 192.799 167.613 192.509 167.671C192.22 167.729 162.424 175.482 164.738 209.56C164.738 209.733 164.68 209.907 164.564 210.08C164.449 210.196 164.275 210.254 164.101 210.312H164.044C163.696 210.312 163.407 210.023 163.407 209.675C163.349 209.097 163.349 208.518 163.291 207.998C163.176 205.047 163.291 202.27 163.639 199.666C163.696 199.261 163.754 198.856 163.812 198.509C167.11 176.986 184.467 169.117 190.253 167.034L165.201 157.835C164.969 157.777 164.796 157.546 164.796 157.257C164.796 157.025 164.911 156.736 165.143 156.62L178.392 149.272C178.855 149.504 179.376 149.735 179.839 149.967L167.052 157.025L192.567 166.398C192.857 166.514 193.03 166.745 193.03 167.092Z" fill="black"/>
<path d="M98.6066 288.304H97.2759L97.0444 214.709C97.0444 214.362 97.3337 214.015 97.7387 214.015C98.0859 214.015 98.3751 214.304 98.3751 214.709L98.6066 288.304Z" fill="black"/>
<path d="M207.379 288.304H206.048L203.965 262.904L203.213 253.647L199.452 207.592C199.452 207.245 199.684 206.898 200.031 206.84C200.378 206.84 200.725 207.072 200.783 207.477L204.601 254.226L205.238 262.094L207.379 288.304Z" fill="black"/>
<path d="M172.606 211.643H195.749C195.749 211.643 196.443 246.01 185.219 243.638C173.995 241.266 172.606 211.643 172.606 211.643Z" stroke="black" stroke-width="2.3046" stroke-miterlimit="10" stroke-linecap="round" stroke-linejoin="round"/>
<path d="M183.541 194.864C183.599 195.211 183.368 195.558 183.02 195.558C183.02 195.558 183.02 195.558 182.963 195.558H182.905C182.558 195.558 182.326 195.327 182.268 194.979C182.268 194.979 182.268 194.979 182.268 194.922C182.268 194.806 182.268 194.748 182.268 194.632C182.268 194.401 182.21 194.169 182.21 193.938C181.111 183.639 179.665 172.82 175.846 162.695C172.837 154.826 167.11 144.123 156.464 137.701L156.232 136.196C156.406 136.138 156.58 136.196 156.753 136.254C167.977 142.85 173.995 154.016 177.119 162.174C181.053 172.589 182.5 183.697 183.599 194.169C183.599 194.227 183.599 194.285 183.599 194.343C183.541 194.632 183.541 194.748 183.541 194.864Z" fill="black"/>
<path d="M200.609 259.086C189.558 258.16 179.26 249.713 174.284 237.563C169.482 225.933 170.003 212.8 175.615 202.559C177.582 198.914 179.954 196.195 182.616 194.401C182.905 194.17 183.31 194.285 183.541 194.575C183.773 194.864 183.657 195.269 183.368 195.5C180.88 197.178 178.623 199.782 176.772 203.195C171.333 213.147 170.87 225.76 175.499 237.042C180.301 248.729 190.195 256.829 200.667 257.755C201.014 257.813 201.303 258.102 201.303 258.449C201.246 258.796 200.956 259.086 200.609 259.086Z" fill="#87A2FF"/>
<path d="M179.607 261.921C179.491 261.921 179.318 261.863 179.202 261.805C178.913 261.574 178.855 261.169 179.086 260.879C189.443 247.225 194.013 228.942 191.236 212.048C189.905 203.832 186.839 198.104 182.21 195.095C181.921 194.922 181.805 194.459 182.037 194.17C182.21 193.88 182.673 193.765 182.963 193.996C187.938 197.236 191.121 203.253 192.567 211.874C195.402 229.173 190.773 247.804 180.128 261.747C180.012 261.863 179.838 261.921 179.607 261.921Z" fill="#87A2FF"/>
<path d="M177.35 266.202C180.034 266.202 182.21 264.026 182.21 261.342C182.21 258.658 180.034 256.482 177.35 256.482C174.666 256.482 172.49 258.658 172.49 261.342C172.49 264.026 174.666 266.202 177.35 266.202Z" fill="black"/>
<path d="M205.56 261.823C207.458 259.926 207.458 256.848 205.56 254.95C203.662 253.052 200.585 253.052 198.687 254.95C196.789 256.848 196.789 259.926 198.687 261.823C200.585 263.721 203.662 263.721 205.56 261.823Z" fill="black"/>
<path d="M113.418 220.61C113.649 221.536 113.881 222.404 114.112 223.33C114.17 223.619 114.054 223.85 113.881 224.024C113.823 224.082 113.707 224.14 113.649 224.14C113.591 224.14 113.533 224.14 113.476 224.14C113.418 224.14 113.36 224.14 113.302 224.14C113.071 224.082 112.897 223.908 112.839 223.677C112.608 222.751 112.376 221.825 112.145 220.9C108.905 207.824 105.954 193.88 105.665 179.937C105.318 163.968 108.558 149.504 115.096 137.99L115.269 140.362C109.483 151.355 106.648 164.952 106.938 179.879C107.227 193.707 110.178 207.535 113.418 220.61Z" fill="black"/>
<path d="M115.385 246.125C122.479 246.125 128.23 240.375 128.23 233.281C128.23 226.187 122.479 220.437 115.385 220.437C108.292 220.437 102.541 226.187 102.541 233.281C102.541 240.375 108.292 246.125 115.385 246.125Z" fill="black"/>
<path d="M115.385 223.85C114.864 223.85 114.344 223.908 113.881 223.966C113.649 223.966 113.476 224.024 113.302 224.082C109.137 225.007 106.012 228.768 106.012 233.223C106.012 238.43 110.236 242.596 115.385 242.596C120.592 242.596 124.758 238.373 124.758 233.223C124.816 228.074 120.592 223.85 115.385 223.85ZM115.385 241.323C110.93 241.323 107.285 237.736 107.285 233.223C107.285 228.768 110.872 225.181 115.385 225.181C119.84 225.181 123.427 228.768 123.427 233.223C123.427 237.736 119.84 241.323 115.385 241.323Z" fill="#FDE4F3"/>
<path d="M54.751 65.3789V100.325" stroke="black" stroke-width="1.8106" stroke-miterlimit="10" stroke-linecap="round" stroke-linejoin="round"/>
<path d="M64.9336 72.3796L43.6421 94.1919" stroke="black" stroke-width="1.8106" stroke-miterlimit="10" stroke-linecap="round" stroke-linejoin="round"/>
<path d="M72.2237 82.8518H37.2778" stroke="black" stroke-width="1.8106" stroke-miterlimit="10" stroke-linecap="round" stroke-linejoin="round"/>
<path d="M65.7436 93.4976L43.6421 72.4954" stroke="black" stroke-width="1.8106" stroke-miterlimit="10" stroke-linecap="round" stroke-linejoin="round"/>
<path d="M237.117 164.373V199.319" stroke="black" stroke-width="1.8106" stroke-miterlimit="10" stroke-linecap="round" stroke-linejoin="round"/>
<path d="M247.3 171.374L226.008 193.186" stroke="black" stroke-width="1.8106" stroke-miterlimit="10" stroke-linecap="round" stroke-linejoin="round"/>
<path d="M254.59 181.846H219.644" stroke="black" stroke-width="1.8106" stroke-miterlimit="10" stroke-linecap="round" stroke-linejoin="round"/>
<path d="M248.11 192.492L226.008 171.49" stroke="black" stroke-width="1.8106" stroke-miterlimit="10" stroke-linecap="round" stroke-linejoin="round"/>
<path d="M238.316 115.11L234.641 116.945L241.178 130.042L244.853 128.207L238.316 115.11Z" fill="#FDE4F3"/>
<path d="M234.745 135.792C234.167 135.676 233.646 135.271 233.357 134.635C232.894 133.593 233.357 132.378 234.398 131.915L251.003 124.278C252.045 123.815 253.26 124.278 253.722 125.319C254.185 126.361 253.722 127.576 252.681 128.039L236.134 135.618C235.671 135.85 235.208 135.907 234.745 135.792Z" fill="#FDE4F3"/>
<path d="M205.354 49.3524C205.18 49.526 205.006 49.6417 204.833 49.6417C204.601 49.6417 204.312 49.4103 204.139 49.0631L203.213 47.0381L202.634 45.7074L198.642 36.7974H200.783L204.081 44.1453L205.064 46.3438L205.527 47.4431C205.874 47.9638 205.759 48.8317 205.354 49.3524Z" fill="black"/>
<path d="M227.686 123.873L197.369 58.1467C196.733 56.7003 197.369 55.0224 198.815 54.4438L213.916 48.2531C215.305 47.6745 216.809 48.3109 217.446 49.6417L248.11 115.657L227.686 123.873Z" fill="#FDE4F3"/>
<path d="M244.292 112.417L214.784 51.3774L200.378 56.6425L228.786 119.707L244.292 112.417Z" fill="#FCCC41"/>
<path d="M214.784 51.3774L200.031 55.7167L199.336 54.0967L198.295 51.7246L197.253 49.3524L210.734 44.0874L213.164 48.4267L213.222 48.5424L214.784 51.3774Z" fill="#FDE4F3"/>
<path d="M213.222 48.5425L199.336 54.0968L198.295 51.7246L213.164 48.4268L213.222 48.5425Z" fill="black"/>
<path d="M203.502 66.4782C203.27 66.4204 203.097 66.3047 202.981 66.0732C202.808 65.7261 202.981 65.2632 203.328 65.0897L208.478 62.6018C208.825 62.4282 209.288 62.6018 209.461 62.9489C209.635 63.2961 209.461 63.7589 209.114 63.9325L203.965 66.4204C203.849 66.4782 203.675 66.5361 203.502 66.4782Z" fill="black"/>
<path d="M205.99 72.6113C205.759 72.5534 205.585 72.4377 205.469 72.2063C205.296 71.8591 205.411 71.3963 205.816 71.2227L211.429 68.4455C211.776 68.272 212.239 68.3877 212.412 68.7927C212.586 69.1398 212.47 69.6027 212.065 69.7763L206.453 72.5534C206.337 72.6113 206.164 72.6691 205.99 72.6113Z" fill="black"/>
<path d="M208.941 77.4714C208.709 77.4135 208.536 77.2978 208.478 77.0664C208.304 76.7192 208.42 76.2564 208.825 76.0828L213.801 73.5371C214.148 73.3635 214.611 73.4792 214.784 73.8842C214.958 74.2314 214.842 74.6942 214.437 74.8678L209.462 77.4135C209.288 77.5293 209.114 77.5293 208.941 77.4714Z" fill="black"/>
<path d="M38.4741 167.775L36.3398 182.256L40.4038 182.855L42.538 168.374L38.4741 167.775Z" fill="#FDE4F3"/>
<path d="M51.1052 167.324C51.5102 167.787 51.6838 168.423 51.5681 169.059C51.3945 170.159 50.2952 170.911 49.1959 170.737L31.2023 167.497C30.103 167.324 29.3508 166.224 29.5244 165.125C29.698 164.026 30.7973 163.274 31.8966 163.447L49.8902 166.687C50.3531 166.745 50.8159 167.034 51.1052 167.324Z" fill="#FDE4F3"/>
<path d="M25.7062 255.036C25.9376 254.978 26.1691 254.978 26.2848 255.093C26.5162 255.267 26.5741 255.556 26.5162 255.961L25.8219 259.606L22.6976 275.806C22.0612 275.749 21.4248 275.633 20.7305 275.517L23.6812 260.069L24.3755 256.54C24.5491 255.903 25.1276 255.209 25.7062 255.036Z" fill="black"/>
<path d="M50.0643 181.21L37.3356 252.49C37.0464 254.052 35.5421 255.036 34.0378 254.689L18.127 251.101C16.6805 250.754 15.7548 249.366 16.0441 247.919L28.657 176.234L50.0643 181.21Z" fill="#FDE4F3"/>
<path d="M29.9294 181.036L19.168 247.977L33.9795 251.911L46.8238 183.929L29.9294 181.036Z" fill="#FCCC41"/>
<path d="M19.1682 247.977L33.7482 252.895L33.4011 254.573L32.8804 257.176L32.4175 259.722L18.3003 256.309L18.821 251.333V251.217L19.1682 247.977Z" fill="#FDE4F3"/>
<path d="M18.8208 251.217L33.4009 254.573L32.8802 257.176L18.8208 251.333V251.217Z" fill="black"/>
<path d="M37.0462 242.076C37.1619 242.249 37.2776 242.481 37.2198 242.712C37.1619 243.117 36.7569 243.406 36.3519 243.349L30.6819 242.423C30.2769 242.365 29.9876 241.96 30.0455 241.555C30.1033 241.15 30.5083 240.861 30.9133 240.919L36.5833 241.844C36.7569 241.844 36.9305 241.96 37.0462 242.076Z" fill="black"/>
<path d="M38.5508 235.653C38.6665 235.827 38.7822 236.058 38.7244 236.29C38.6665 236.695 38.2615 236.984 37.8565 236.926L31.6658 236C31.2608 235.943 30.9715 235.538 31.0293 235.133C31.0872 234.728 31.4922 234.438 31.8972 234.496L38.0879 235.422C38.2615 235.422 38.4351 235.48 38.5508 235.653Z" fill="black"/>
<path d="M38.8978 229.926C39.0135 230.099 39.1292 230.273 39.0713 230.504C39.0135 230.909 38.6085 231.198 38.2035 231.141L32.6492 230.388C32.2442 230.331 31.9549 229.926 32.0127 229.521C32.0706 229.116 32.4756 228.826 32.8806 228.884L38.4349 229.636C38.6085 229.694 38.7821 229.81 38.8978 229.926Z" fill="black"/>
</svg>
